<svg id="Layer_1" enable-background="new 0 0 256 256" height="512" viewBox="0 0 256 256" width="512" xmlns="http://www.w3.org/2000/svg"><path d="m188.786 124.612v22.95 22.95l42.513 20.575c2.296 1.111 4.908-.666 4.908-3.34v-40.185-40.185c0-2.674-2.612-4.451-4.908-3.34z" fill="#f9a7a7"/><path d="m232.742 193.42c-.787 0-1.577-.177-2.314-.534l-42.513-20.574c-.69-.334-1.129-1.033-1.129-1.8v-45.9c0-.767.438-1.466 1.129-1.8l42.514-20.574c1.655-.803 3.576-.696 5.138.284 1.653 1.036 2.641 2.852 2.641 4.855v80.369c0 2.004-.987 3.819-2.641 4.855-.867.545-1.844.819-2.825.819zm-41.956-24.162 41.385 20.028c.566.273 1.04.072 1.271-.073.479-.301.765-.849.765-1.467v-80.369c0-.618-.286-1.166-.765-1.467-.23-.146-.704-.346-1.271-.073l-41.385 20.028z" fill="#3762cc"/><path d="m181.345 213.123h-150.39c-6.164 0-11.162-4.997-11.162-11.162v-104.643c0-6.164 4.997-11.162 11.162-11.162h150.39c6.164 0 11.162 4.997 11.162 11.162v104.643c-.001 6.164-4.998 11.162-11.162 11.162z" fill="#a4c9ff"/><path d="m181.345 215.123h-150.39c-7.257 0-13.162-5.904-13.162-13.162v-104.644c0-7.257 5.904-13.161 13.162-13.161h150.39c7.257 0 13.162 5.904 13.162 13.161v104.644c-.001 7.258-5.905 13.162-13.162 13.162zm-150.39-126.967c-5.052 0-9.162 4.109-9.162 9.161v104.644c0 5.052 4.11 9.162 9.162 9.162h150.39c5.052 0 9.162-4.11 9.162-9.162v-104.644c0-5.052-4.11-9.161-9.162-9.161z" fill="#3762cc"/><circle cx="104.79" cy="90.815" fill="#6bdddd" r="47.938"/><path d="m104.79 125.059c-18.882 0-34.245-15.362-34.245-34.244s15.362-34.244 34.245-34.244c18.882 0 34.244 15.362 34.244 34.244s-15.362 34.244-34.244 34.244z" fill="#4671c6"/><path d="m104.79 140.753c-27.536 0-49.938-22.402-49.938-49.938s22.402-49.938 49.938-49.938 49.938 22.402 49.938 49.938-22.402 49.938-49.938 49.938zm0-95.876c-25.33 0-45.938 20.608-45.938 45.938s20.607 45.938 45.938 45.938 45.938-20.607 45.938-45.938-20.608-45.938-45.938-45.938z" fill="#3762cc"/><path d="m125.277 82.363h-11.982v-11.983c0-1.369-1.11-2.479-2.479-2.479h-11.569c-1.369 0-2.479 1.11-2.479 2.479v11.982h-11.983c-1.369 0-2.479 1.11-2.479 2.479v11.569c0 1.369 1.11 2.479 2.479 2.479h11.982v11.982c0 1.369 1.11 2.479 2.479 2.479h11.569c1.369 0 2.479-1.11 2.479-2.479v-11.981h11.982c1.369 0 2.479-1.11 2.479-2.479v-11.569c.002-1.369-1.108-2.479-2.478-2.479z" fill="#ffea92"/></svg>